<svg width="164" height="164" viewBox="0 0 164 164" fill="none" xmlns="http://www.w3.org/2000/svg">
<rect x="0.5" y="0.5" width="163" height="163" rx="7.5" fill="white"/>
<rect x="0.5" y="0.5" width="163" height="163" rx="7.5" stroke="#CEDDED"/>
<path fill-rule="evenodd" clip-rule="evenodd" d="M87.7144 52.6667H92.0699C93.8719 52.6667 95.3338 54.1413 95.3338 55.9603V60.3522C95.3338 62.1699 93.8719 63.6458 92.0699 63.6458H87.7144C85.9111 63.6458 84.4492 62.1699 84.4492 60.3522V55.9603C84.4492 54.1413 85.9111 52.6667 87.7144 52.6667Z" stroke="#F08201" stroke-width="2" stroke-linecap="round" stroke-linejoin="round"/>
<path fill-rule="evenodd" clip-rule="evenodd" d="M71.9322 52.6667H76.2863C78.0897 52.6667 79.5515 54.1413 79.5515 55.9603V60.3522C79.5515 62.1699 78.0897 63.6458 76.2863 63.6458H71.9322C70.1288 63.6458 68.667 62.1699 68.667 60.3522V55.9603C68.667 54.1413 70.1288 52.6667 71.9322 52.6667Z" stroke="#F08201" stroke-width="2" stroke-linecap="round" stroke-linejoin="round"/>
<path fill-rule="evenodd" clip-rule="evenodd" d="M71.9322 68.3542H76.2863C78.0897 68.3542 79.5515 69.8288 79.5515 71.6492V76.0397C79.5515 77.8588 78.0897 79.3333 76.2863 79.3333H71.9322C70.1288 79.3333 68.667 77.8588 68.667 76.0397V71.6492C68.667 69.8288 70.1288 68.3542 71.9322 68.3542Z" stroke="#F08201" stroke-width="2" stroke-linecap="round" stroke-linejoin="round"/>
<path fill-rule="evenodd" clip-rule="evenodd" d="M87.7144 68.3542H92.0699C93.8719 68.3542 95.3338 69.8288 95.3338 71.6492V76.0397C95.3338 77.8588 93.8719 79.3333 92.0699 79.3333H87.7144C85.9111 79.3333 84.4492 77.8588 84.4492 76.0397V71.6492C84.4492 69.8288 85.9111 68.3542 87.7144 68.3542Z" stroke="#F08201" stroke-width="2" stroke-linecap="round" stroke-linejoin="round"/>
<path d="M41.8429 111V101.006H43.4835V109.605H47.7286V111H41.8429ZM50.8165 103.433V111H49.21V103.433H50.8165ZM50.0235 100.534C50.2696 100.534 50.4815 100.6 50.6593 100.732C50.8415 100.865 50.9327 101.092 50.9327 101.416C50.9327 101.735 50.8415 101.963 50.6593 102.1C50.4815 102.232 50.2696 102.298 50.0235 102.298C49.7683 102.298 49.5518 102.232 49.3741 102.1C49.2009 101.963 49.1143 101.735 49.1143 101.416C49.1143 101.092 49.2009 100.865 49.3741 100.732C49.5518 100.6 49.7683 100.534 50.0235 100.534ZM54.6426 100.363V103.036C54.6426 103.314 54.6335 103.585 54.6153 103.85C54.6016 104.114 54.5857 104.319 54.5674 104.465H54.6563C54.8158 104.201 55.0118 103.984 55.2442 103.815C55.4766 103.642 55.7364 103.512 56.0235 103.426C56.3152 103.339 56.6251 103.296 56.9532 103.296C57.532 103.296 58.0241 103.394 58.4297 103.59C58.8353 103.781 59.1452 104.08 59.3594 104.485C59.5782 104.891 59.6876 105.417 59.6876 106.064V111H58.0811V106.365C58.0811 105.777 57.9603 105.338 57.7188 105.046C57.4773 104.75 57.1036 104.602 56.5977 104.602C56.1101 104.602 55.7227 104.704 55.4356 104.909C55.1531 105.11 54.9503 105.408 54.8272 105.805C54.7042 106.197 54.6426 106.675 54.6426 107.24V111H53.0362V100.363H54.6426ZM64.8194 103.289C65.7764 103.289 66.4987 103.501 66.9864 103.925C67.4786 104.349 67.7246 105.009 67.7246 105.907V111H66.583L66.2754 109.927H66.2207C66.0066 110.2 65.7855 110.426 65.5577 110.604C65.3298 110.781 65.0655 110.913 64.7647 111C64.4685 111.091 64.1062 111.137 63.6778 111.137C63.2266 111.137 62.8233 111.055 62.4678 110.891C62.1123 110.722 61.8321 110.467 61.627 110.125C61.4219 109.783 61.3194 109.35 61.3194 108.826C61.3194 108.047 61.6088 107.461 62.1875 107.069C62.7709 106.677 63.6504 106.461 64.8262 106.42L66.1387 106.372V105.976C66.1387 105.451 66.0157 105.078 65.7696 104.854C65.528 104.631 65.1862 104.52 64.7442 104.52C64.3659 104.52 63.9991 104.574 63.6436 104.684C63.2881 104.793 62.9418 104.927 62.6045 105.087L62.085 103.952C62.4541 103.756 62.8734 103.597 63.3428 103.474C63.8168 103.351 64.309 103.289 64.8194 103.289ZM66.1319 107.384L65.1543 107.418C64.3523 107.445 63.7894 107.582 63.4659 107.828C63.1423 108.074 62.9805 108.411 62.9805 108.84C62.9805 109.214 63.0922 109.487 63.3155 109.66C63.5388 109.829 63.8327 109.913 64.1973 109.913C64.7533 109.913 65.2136 109.756 65.5782 109.441C65.9473 109.122 66.1319 108.655 66.1319 108.04V107.384ZM72.7061 109.838C72.9157 109.838 73.1231 109.82 73.3281 109.783C73.5332 109.742 73.7201 109.694 73.8887 109.64V110.856C73.711 110.934 73.4808 111 73.1983 111.055C72.9157 111.109 72.6218 111.137 72.3164 111.137C71.888 111.137 71.503 111.066 71.1612 110.925C70.8194 110.779 70.5482 110.531 70.3477 110.18C70.1472 109.829 70.0469 109.343 70.0469 108.724V104.656H69.0147V103.938L70.1221 103.371L70.6485 101.751H71.6602V103.433H73.8272V104.656H71.6602V108.703C71.6602 109.086 71.7559 109.371 71.9473 109.558C72.1387 109.744 72.3916 109.838 72.7061 109.838ZM84.8291 108.279C84.8291 108.872 84.6833 109.382 84.3916 109.811C84.1045 110.239 83.6898 110.567 83.1475 110.795C82.6097 111.023 81.9671 111.137 81.2197 111.137C80.8551 111.137 80.5065 111.116 80.1738 111.075C79.8411 111.034 79.5267 110.975 79.2305 110.897C78.9388 110.815 78.6722 110.717 78.4307 110.604V109.059C78.8363 109.236 79.2897 109.398 79.791 109.544C80.2923 109.685 80.8027 109.756 81.3223 109.756C81.7461 109.756 82.097 109.701 82.375 109.592C82.6575 109.478 82.8672 109.318 83.0039 109.113C83.1406 108.904 83.209 108.66 83.209 108.382C83.209 108.086 83.1292 107.835 82.9697 107.63C82.8102 107.425 82.5687 107.238 82.2451 107.069C81.9261 106.896 81.5251 106.712 81.042 106.516C80.7139 106.383 80.3994 106.233 80.0986 106.064C79.8024 105.896 79.5381 105.698 79.3057 105.47C79.0732 105.242 78.8887 104.973 78.7519 104.663C78.6198 104.349 78.5537 103.979 78.5537 103.556C78.5537 102.991 78.6881 102.507 78.957 102.106C79.2305 101.705 79.6133 101.398 80.1055 101.184C80.6022 100.969 81.181 100.862 81.8418 100.862C82.3659 100.862 82.8581 100.917 83.3184 101.026C83.7832 101.136 84.2389 101.291 84.6855 101.491L84.166 102.811C83.7559 102.642 83.3571 102.507 82.9697 102.407C82.5869 102.307 82.195 102.257 81.7939 102.257C81.4476 102.257 81.1536 102.309 80.9121 102.414C80.6706 102.519 80.486 102.667 80.3584 102.858C80.2353 103.045 80.1738 103.269 80.1738 103.528C80.1738 103.82 80.2445 104.066 80.3857 104.267C80.5316 104.463 80.7549 104.643 81.0557 104.807C81.361 104.971 81.7529 105.153 82.2314 105.354C82.7829 105.581 83.25 105.821 83.6328 106.071C84.0202 106.322 84.3164 106.623 84.5215 106.974C84.7266 107.32 84.8291 107.755 84.8291 108.279ZM89.5234 103.289C90.1979 103.289 90.7767 103.428 91.2597 103.706C91.7428 103.984 92.1142 104.378 92.374 104.889C92.6338 105.399 92.7636 106.01 92.7636 106.721V107.582H87.7119C87.7301 108.316 87.9261 108.881 88.2998 109.277C88.678 109.674 89.2067 109.872 89.8857 109.872C90.3688 109.872 90.8017 109.826 91.1845 109.735C91.5719 109.64 91.9707 109.501 92.3808 109.318V110.624C92.0026 110.802 91.6175 110.932 91.2256 111.014C90.8336 111.096 90.3642 111.137 89.8174 111.137C89.0745 111.137 88.4206 110.993 87.8554 110.706C87.2949 110.414 86.8551 109.981 86.5361 109.407C86.2217 108.833 86.0644 108.12 86.0644 107.268C86.0644 106.42 86.208 105.7 86.4951 105.107C86.7822 104.515 87.1855 104.064 87.7051 103.754C88.2246 103.444 88.8307 103.289 89.5234 103.289ZM89.5234 104.499C89.0176 104.499 88.6074 104.663 88.2929 104.991C87.9831 105.319 87.8008 105.8 87.7461 106.434H91.1914C91.1868 106.055 91.123 105.72 91 105.429C90.8815 105.137 90.6992 104.909 90.4531 104.745C90.2116 104.581 89.9017 104.499 89.5234 104.499ZM103.043 103.289C103.891 103.289 104.529 103.508 104.957 103.945C105.39 104.383 105.606 105.085 105.606 106.051V111H104V106.338C104 105.764 103.888 105.331 103.665 105.039C103.442 104.747 103.102 104.602 102.646 104.602C102.008 104.602 101.548 104.807 101.266 105.217C100.988 105.622 100.849 106.213 100.849 106.987V111H99.2421V106.338C99.2421 105.955 99.192 105.636 99.0918 105.381C98.9961 105.121 98.8479 104.927 98.6474 104.8C98.4469 104.668 98.194 104.602 97.8886 104.602C97.4466 104.602 97.0934 104.702 96.8291 104.902C96.5693 105.103 96.3824 105.399 96.2685 105.791C96.1546 106.178 96.0976 106.655 96.0976 107.22V111H94.4912V103.433H95.7421L95.9677 104.451H96.0566C96.2116 104.187 96.403 103.97 96.6308 103.802C96.8632 103.629 97.1207 103.501 97.4033 103.419C97.6858 103.332 97.9798 103.289 98.2851 103.289C98.8502 103.289 99.3265 103.389 99.7138 103.59C100.101 103.786 100.391 104.087 100.582 104.492H100.705C100.942 104.082 101.272 103.779 101.696 103.583C102.12 103.387 102.569 103.289 103.043 103.289ZM114.361 103.433V111H113.097L112.878 109.981H112.789C112.63 110.241 112.427 110.458 112.181 110.631C111.935 110.799 111.661 110.925 111.36 111.007C111.06 111.093 110.743 111.137 110.41 111.137C109.84 111.137 109.353 111.041 108.947 110.85C108.546 110.654 108.239 110.353 108.024 109.947C107.81 109.542 107.703 109.018 107.703 108.375V103.433H109.316V108.074C109.316 108.662 109.435 109.102 109.672 109.394C109.913 109.685 110.287 109.831 110.793 109.831C111.281 109.831 111.668 109.731 111.955 109.53C112.242 109.33 112.445 109.034 112.563 108.642C112.686 108.25 112.748 107.769 112.748 107.199V103.433H114.361ZM119.548 103.289C120.505 103.289 121.227 103.501 121.715 103.925C122.207 104.349 122.453 105.009 122.453 105.907V111H121.311L121.004 109.927H120.949C120.735 110.2 120.514 110.426 120.286 110.604C120.058 110.781 119.794 110.913 119.493 111C119.197 111.091 118.835 111.137 118.406 111.137C117.955 111.137 117.552 111.055 117.196 110.891C116.841 110.722 116.56 110.467 116.355 110.125C116.15 109.783 116.048 109.35 116.048 108.826C116.048 108.047 116.337 107.461 116.916 107.069C117.499 106.677 118.379 106.461 119.555 106.42L120.867 106.372V105.976C120.867 105.451 120.744 105.078 120.498 104.854C120.256 104.631 119.915 104.52 119.473 104.52C119.094 104.52 118.727 104.574 118.372 104.684C118.017 104.793 117.67 104.927 117.333 105.087L116.813 103.952C117.183 103.756 117.602 103.597 118.071 103.474C118.545 103.351 119.037 103.289 119.548 103.289ZM120.86 107.384L119.883 107.418C119.081 107.445 118.518 107.582 118.194 107.828C117.871 108.074 117.709 108.411 117.709 108.84C117.709 109.214 117.821 109.487 118.044 109.66C118.267 109.829 118.561 109.913 118.926 109.913C119.482 109.913 119.942 109.756 120.307 109.441C120.676 109.122 120.86 108.655 120.86 108.04V107.384Z" fill="#F08201"/>
</svg>
