<svg width="240" height="240" viewBox="0 0 240 240" fill="none" xmlns="http://www.w3.org/2000/svg">
<g style="mix-blend-mode:multiply">
<g style="mix-blend-mode:multiply">
<path d="M136.911 40.6581C120.214 30.1921 99.9591 24.3816 80.5741 27.9178C61.1891 31.454 43.2585 45.4848 38.1824 64.5205C34.8885 76.8829 37.006 90.1865 33.7763 102.563C28.8 121.663 11.4112 138.189 14.7407 157.638C17.9204 176.189 38.9381 186.334 57.7456 187.169C76.5531 188.003 95.3178 182.691 114.061 184.438C129.946 185.921 145.181 192.437 161.13 192.573C181.627 192.744 201.839 181.451 212.448 163.919C223.063 146.388 223.705 123.253 214.102 105.151C197.868 74.5373 164.402 57.9114 136.897 40.6724L136.911 40.6581Z" fill="#CEE8F5"/>
</g>
<g style="mix-blend-mode:multiply">
<path d="M80.2532 43.5742C71.762 56.4143 58.6438 65.3404 45.7323 73.7318C32.8209 82.1231 19.4959 90.5715 10.2205 102.856C0.945066 115.14 -3.51798 132.343 3.29065 146.146C8.1672 156.034 17.7991 162.536 27.0175 168.589C43.7218 179.554 60.6115 190.612 79.3335 197.599C98.0554 204.586 119.052 207.245 138.059 201.064C165.778 192.052 184.343 166.457 199.558 141.597C208.605 126.803 217.495 109.907 213.888 92.9457C209.717 73.3468 190.667 61.1482 173.3 51.1599C156.731 41.6278 140.155 32.0957 123.586 22.5708C118.674 19.7475 113.498 16.8387 107.83 16.6604C100.515 16.4252 93.6993 20.9167 89.2505 26.7201C84.8018 32.5235 82.7413 39.8169 80.2532 43.5812V43.5742Z" fill="#CEE8F5"/>
</g>
<g style="mix-blend-mode:multiply">
<path d="M11.3477 66.5524C7.41228 66.2316 3.71922 69.7464 3.43404 73.6819C3.14886 77.6174 5.95074 81.4459 9.65806 82.7933C13.3654 84.1408 17.7072 83.1712 20.8157 80.733C23.1327 78.9149 24.8652 76.2414 25.2003 73.3112C25.5354 70.381 24.3447 67.2369 21.935 65.5401C17.9496 62.7311 12.4813 64.4992 11.3477 66.5524Z" fill="#CEE8F5"/>
</g>
<g style="mix-blend-mode:multiply">
<path d="M163.834 206.932C156.968 208.336 151.35 214.496 150.594 221.462C150.188 225.212 151.514 229.603 155.007 231.044C157.831 232.206 161.082 231.058 163.691 229.461C168.389 226.588 172.36 221.747 172.353 216.243C172.346 210.739 167.249 206.233 163.841 206.932H163.834Z" fill="#CEE8F5"/>
</g>
<g style="mix-blend-mode:multiply">
<path d="M231.525 93.2381C230.149 92.5679 228.41 93.2096 227.412 94.3717C226.414 95.5338 226.014 97.088 225.779 98.5995C225.408 100.952 225.48 103.676 227.212 105.315C228.495 106.535 230.37 106.841 232.124 107.091C234.192 107.383 236.53 107.611 238.163 106.306C239.332 105.372 239.86 103.818 239.974 102.321C240.166 99.7758 239.268 97.1165 237.421 95.3556C235.575 93.5946 232.766 92.8317 231.525 93.2381Z" fill="#CEE8F5"/>
</g>
</g>
<path d="M94.554 53.812C113.055 34.7407 121.781 24.2176 143.362 8.48291C153.058 24.1463 166.447 41.5921 187.8 58.0754C169.485 57.334 154.848 55.6158 154.848 55.6158C153.878 80.2623 166.961 126.882 172.771 141.312H119.928C114.901 122.839 120.32 70.167 124.013 55.737C114.616 55.737 94.5469 53.812 94.5469 53.812H94.554Z" fill="url(#paint0_linear_5452_44057)"/>
<g opacity="0.17">
<path d="M165.677 55.616C165.663 55.9653 165.656 56.3147 165.648 56.6712C171.48 57.1702 179.237 57.7263 187.8 58.0756C187.536 57.8689 187.272 57.6621 187.015 57.4625C174.503 56.6498 165.684 55.616 165.684 55.616H165.677Z" fill="url(#paint1_linear_5452_44057)"/>
<path d="M134.85 55.7372C125.454 55.7372 105.384 53.8122 105.384 53.8122C121.647 37.0509 130.359 26.8913 146.885 13.9942C145.659 12.1405 144.482 10.3011 143.363 8.49023C121.789 24.2249 113.056 34.748 94.5547 53.8193C94.5547 53.8193 114.624 55.7443 124.021 55.7443C120.328 70.1743 114.909 122.847 119.936 141.319H130.765C125.739 122.847 131.157 70.1743 134.85 55.7443V55.7372Z" fill="url(#paint2_linear_5452_44057)"/>
</g>
<path d="M94.554 53.812C113.055 34.7407 121.781 24.2176 143.362 8.48291C153.058 24.1463 166.447 41.5921 187.8 58.0754C169.485 57.334 154.848 55.6158 154.848 55.6158C153.878 80.2623 166.961 126.882 172.771 141.312H119.928C114.901 122.839 120.32 70.167 124.013 55.737C114.616 55.737 94.5469 53.812 94.5469 53.812H94.554Z" fill="url(#paint3_linear_5452_44057)"/>
<path d="M150.984 109.736L145.11 93.7228L124.67 77.1967L102.518 70.1172C87.7389 78.6939 73.6582 88.4684 60.4688 99.3266C70.6496 138.574 71.8474 180.21 63.8267 220.021C73.9506 217.155 84.0673 214.289 94.1911 211.43C99.5382 209.919 104.957 208.365 110.225 206.489C118.46 203.559 126.309 199.831 132.933 194.198C144.454 184.402 150.999 169.673 153.237 154.715C155.469 139.8 153.751 124.565 150.984 109.743V109.736Z" fill="#FFEBCC"/>
<path d="M72.0683 116.444L71.4766 114.284C85.3505 104.132 99.9445 96.6173 114.852 91.9475L114.966 94.3501C100.215 98.97 85.7854 106.406 72.0683 116.444Z" fill="#B6B5CF"/>
<path d="M75.9529 126.789L74.6055 124.693C88.1015 116.024 102.86 109.771 118.473 106.1L119.043 108.524C103.708 112.124 89.2066 118.27 75.9529 126.789Z" fill="#B6B5CF"/>
<path d="M78.6845 140.078L77.4297 137.925C95.4102 127.488 114.738 119.574 134.872 114.405L135.492 116.822C115.572 121.927 96.4582 129.755 78.6773 140.078H78.6845Z" fill="#B6B5CF"/>
<path d="M80.4434 152.42L79.2812 150.217C93.5116 142.695 108.533 136.528 123.947 131.894L124.667 134.282C109.41 138.874 94.5383 144.977 80.4505 152.427L80.4434 152.42Z" fill="#B6B5CF"/>
<path d="M82.1051 162.8L81.4492 160.397C99.0019 155.599 116.334 149.425 132.96 142.039L133.972 144.313C117.232 151.749 99.7791 157.973 82.1051 162.8Z" fill="#B6B5CF"/>
<path d="M81.364 176.268L80.8008 173.837C94.582 170.657 107.836 165.545 120.184 158.651L121.403 160.825C108.848 167.841 95.3734 173.038 81.364 176.268Z" fill="#B6B5CF"/>
<path d="M151.111 110.099C149.507 104.531 146.926 99.0769 141.936 95.2555C136.311 90.9493 126.907 89.3808 120.105 93.188C118.751 83.663 112.099 75.0292 102.367 70.0671C111.55 70.7444 120.711 71.8994 128.475 75.5354C138.449 80.2123 145.066 88.6251 148.359 97.7294C149.807 101.736 150.662 105.886 151.118 110.099H151.111Z" fill="#E8C48E"/>
<path d="M101.398 195.752L107.473 210.774L151.511 198.946C151.511 198.946 152.795 145.946 151.511 136.179C150.228 126.411 135.085 151.785 135.085 151.785L101.398 195.752Z" fill="#FFEBCC"/>
<path d="M23.2376 137.811L11.6238 191.681C11.0035 194.54 12.9213 197.364 16.1937 198.405L99.8152 225.062C104.2 226.459 109.005 224.106 109.654 220.242C112.085 205.719 117.86 174.207 124.112 161.068C125.638 157.852 123.663 154.238 119.735 153.104C90.4898 144.663 48.9179 136.257 32.0924 132.97C28.0215 132.179 23.9791 134.382 23.2448 137.797L23.2376 137.811Z" fill="#F7F7F7"/>
<path d="M99.8088 225.062C91.4602 210.553 83.6036 195.225 76.1604 180.239C73.6865 175.184 71.1769 170.143 68.7743 165.06L71.3409 165.766C54.5296 176.688 37.369 187.518 19.9375 197.414C35.9431 185.343 52.6974 173.894 69.4017 162.807L71.0629 161.702C75.1195 169.865 79.0407 178.1 82.8835 186.363C88.7225 198.932 94.6899 212.193 99.816 225.062H99.8088Z" fill="#B6B5CF"/>
<path d="M26.6953 139.573L68.0604 176.432L121.303 162.251" fill="#F7F7F7"/>
<path d="M26.6953 139.573C37.7032 147.8 48.5115 156.904 58.8777 165.923C62.3426 168.974 65.8289 172.004 69.2368 175.12L67.6041 174.728C72.0458 173.566 76.4874 172.404 80.9505 171.32C94.2255 168.019 107.871 164.811 121.303 162.266C110.531 166.016 99.373 169.367 88.415 172.589C81.6706 174.514 74.3557 176.603 67.6113 178.4L66.8841 177.765C53.0957 165.567 39.3786 152.947 26.6953 139.58V139.573Z" fill="#B6B5CF"/>
<path d="M23.2393 137.811C20.5657 151.079 17.5856 165.851 14.7766 179.176C14.2918 181.479 13.0941 187.29 12.6235 189.507C12.4453 190.448 12.0318 191.931 12.0603 192.844C12.1458 195.717 14.7624 197.542 17.3717 198.148C18.3485 198.462 21.3642 199.41 22.4051 199.738C41.6618 205.819 70.1725 214.831 89.4577 221.076L96.1594 223.229C97.0862 223.486 100.145 224.598 101.121 224.726C103.745 225.19 106.761 224.249 108.308 222.017C108.95 221.148 109.085 220.135 109.313 218.937L109.969 215.48C111.416 207.316 113.705 195.838 115.601 187.881C117.883 178.799 120.114 169.58 124.107 161.075C120.4 169.694 118.339 178.913 116.279 188.038C114.525 195.966 112.4 207.537 111.046 215.665L110.44 219.13C110.254 220.306 110.026 221.654 109.299 222.68C107.452 225.39 104.009 226.466 100.915 225.953C99.7669 225.782 96.9365 224.784 95.7744 224.434C73.6873 217.49 44.043 208.008 22.0344 200.907C21.1646 200.615 17.9136 199.588 17.0081 199.296C13.9995 198.583 10.9837 196.216 10.9695 192.865C10.9481 191.71 11.4044 190.377 11.604 189.286C12.0817 187.09 13.4006 181.251 13.8997 178.984C16.9012 165.687 20.138 151.008 23.2322 137.811H23.2393Z" fill="#B6B5CF"/>
<defs>
<linearGradient id="paint0_linear_5452_44057" x1="141.174" y1="8.48291" x2="141.174" y2="141.312" gradientUnits="userSpaceOnUse">
<stop stop-color="#0994D4"/>
<stop offset="0.35" stop-color="#0891D0"/>
<stop offset="0.62" stop-color="#088AC7"/>
<stop offset="0.87" stop-color="#077EB6"/>
<stop offset="1" stop-color="#0775AA"/>
</linearGradient>
<linearGradient id="paint1_linear_5452_44057" x1="176.72" y1="55.616" x2="176.72" y2="58.0756" gradientUnits="userSpaceOnUse">
<stop stop-color="white"/>
<stop offset="0.17" stop-color="#FBFDFD" stop-opacity="0.99"/>
<stop offset="0.3" stop-color="#F2F8FA" stop-opacity="0.95"/>
<stop offset="0.42" stop-color="#E2EFF5" stop-opacity="0.88"/>
<stop offset="0.53" stop-color="#CBE2ED" stop-opacity="0.79"/>
<stop offset="0.64" stop-color="#AED2E3" stop-opacity="0.67"/>
<stop offset="0.74" stop-color="#8ABED6" stop-opacity="0.53"/>
<stop offset="0.84" stop-color="#5FA6C8" stop-opacity="0.36"/>
<stop offset="0.93" stop-color="#2F8BB7" stop-opacity="0.16"/>
<stop offset="1" stop-color="#0775AA" stop-opacity="0"/>
</linearGradient>
<linearGradient id="paint2_linear_5452_44057" x1="120.72" y1="8.4831" x2="120.72" y2="141.312" gradientUnits="userSpaceOnUse">
<stop stop-color="white"/>
<stop offset="0.17" stop-color="#FBFDFD" stop-opacity="0.99"/>
<stop offset="0.3" stop-color="#F2F8FA" stop-opacity="0.95"/>
<stop offset="0.42" stop-color="#E2EFF5" stop-opacity="0.88"/>
<stop offset="0.53" stop-color="#CBE2ED" stop-opacity="0.79"/>
<stop offset="0.64" stop-color="#AED2E3" stop-opacity="0.67"/>
<stop offset="0.74" stop-color="#8ABED6" stop-opacity="0.53"/>
<stop offset="0.84" stop-color="#5FA6C8" stop-opacity="0.36"/>
<stop offset="0.93" stop-color="#2F8BB7" stop-opacity="0.16"/>
<stop offset="1" stop-color="#0775AA" stop-opacity="0"/>
</linearGradient>
<linearGradient id="paint3_linear_5452_44057" x1="94.554" y1="74.901" x2="187.8" y2="74.901" gradientUnits="userSpaceOnUse">
<stop stop-color="#0994D4" stop-opacity="0"/>
<stop offset="0.12" stop-color="#0892D2" stop-opacity="0.04"/>
<stop offset="0.28" stop-color="#088FCD" stop-opacity="0.15"/>
<stop offset="0.48" stop-color="#0889C6" stop-opacity="0.33"/>
<stop offset="0.7" stop-color="#0781BB" stop-opacity="0.58"/>
<stop offset="0.93" stop-color="#0777AE" stop-opacity="0.9"/>
<stop offset="1" stop-color="#0775AA"/>
</linearGradient>
</defs>
</svg>
