<svg width="101" height="42" viewBox="0 0 101 42" fill="none" xmlns="http://www.w3.org/2000/svg">
<path d="M34.1314 41.9956H43.918L41.6734 38.3551L34.1314 41.9956ZM39.8434 35.3925L29.6719 18.8993L49.3902 4.72378e-07H33.8145C32.5931 -0.000544386 31.4198 0.470274 30.5454 1.31186L16.7317 14.6321L18.2833 4.72378e-07H4.21492L0.0130535 39.4917C-0.0565335 40.1315 0.153708 40.7714 0.605283 41.2491C1.05686 41.7268 1.66389 42 2.31683 42H13.812L14.7684 33.1325L19.0103 29.0757L26.4724 40.7159C26.7235 41.1077 27.0711 41.4304 27.4828 41.6539C27.8944 41.8774 28.3567 41.9944 28.8265 41.9942H34.1299L36.8053 36.7306L39.8434 35.3925Z" fill="#2D2A70"/>
<path d="M48.3239 41.9956L67.3789 30.5658L69.8041 40.2718C70.0558 41.2871 70.9797 42 72.0398 42H84.3729L78.8652 23.6661L99.8449 11.0734L99.9338 10.2261L34.1475 41.9883L48.3239 41.9956ZM76.8931 17.0966L71.7496 0H59.6311C58.3905 0.000408123 57.1744 0.341061 56.1187 0.983919C55.063 1.62678 54.2091 2.54654 53.6525 3.64049L36.3313 37.6525L100.061 8.96536L100.16 8.00118L76.8931 17.0966ZM56.4079 25.0977L60.6571 16.2259L61.7779 13.7745C61.9112 13.4824 62.2191 13.3071 62.5419 13.3363C62.8647 13.3655 63.1341 13.5919 63.2141 13.9016L65.1566 21.6778L56.4079 25.0977Z" fill="#ED6B23"/>
<path d="M92.3624 0C90.7093 0.0011866 89.1152 0.605997 87.8872 1.69788C86.6592 2.78977 85.8843 4.29147 85.7116 5.9136L84.8529 13.9864L100.165 8.00264L101 0H92.3624ZM81.877 41.9956H96.6087L99.8363 11.0778L84.16 20.4902L81.877 41.9956Z" fill="#2D2A70"/>
</svg>
