<svg width="681" height="330" viewBox="0 0 681 330" fill="none" xmlns="http://www.w3.org/2000/svg">
<path fill-rule="evenodd" clip-rule="evenodd" d="M220.385 231.35C216.815 228.584 211.779 228.584 208.209 231.35C186.364 248.272 158.944 258.344 129.172 258.344C57.8324 258.344 0 200.512 0 129.172C0 57.8324 57.8324 0 129.172 0C158.944 0 186.364 10.0722 208.209 26.9948C211.779 29.7605 216.815 29.7605 220.385 26.9948C242.231 10.0722 269.65 0 299.422 0C331.304 0 360.489 11.5505 383.019 30.6951C386.734 33.8517 392.259 33.8517 395.974 30.6951C418.504 11.5505 447.688 0 479.57 0C550.91 0 608.743 57.8324 608.743 129.172C608.743 135.524 615.629 140.388 621.888 139.31C624.693 138.827 627.576 138.575 630.519 138.575C658.399 138.575 681 161.176 681 189.056C681 216.936 658.399 239.537 630.519 239.537C614.669 239.537 600.525 232.233 591.27 220.806C586.772 215.253 577.311 213.928 572.337 219.06C548.858 243.287 515.973 258.344 479.57 258.344C447.688 258.344 418.504 246.794 395.974 227.649C392.259 224.493 386.734 224.493 383.019 227.649C360.489 246.794 331.304 258.344 299.422 258.344C269.65 258.344 242.231 248.272 220.385 231.35Z" fill="white"/>
<path d="M86.6628 105.255C86.2142 107.525 88.0631 109.49 90.3774 109.49H161.539C163.813 109.49 165.649 107.593 165.332 105.341C163.064 89.2242 151.242 74.5432 125.904 74.5432C103.089 74.5432 89.6402 90.187 86.6628 105.255ZM168.998 159.089C169.863 157.162 171.989 156.074 174.014 156.673L206.742 166.361C208.86 166.988 210.079 169.216 209.344 171.298C199.149 200.208 171.48 223.7 129.522 223.7C80.673 223.7 37.6133 188.752 37.6133 128.946C37.6133 72.3815 79.5874 35.6328 125.18 35.6328C180.181 35.6328 213.109 70.5801 213.109 127.505C213.109 131.404 212.874 135.42 212.672 138.288C212.516 140.492 210.594 142.276 208.385 142.276H89.2048C86.923 142.276 85.0843 144.188 85.4145 146.446C88.5194 167.678 107.445 182.628 129.884 182.628C150.637 182.628 162.72 173.07 168.998 159.089Z" fill="#0B56A7"/>
<path d="M232.355 172.481C231.978 170.474 233.341 168.607 235.336 168.171L268.591 160.91C270.963 160.392 273.225 162.101 273.77 164.467C276.575 176.652 286.944 186.951 305.645 186.951C321.566 186.951 329.165 178.665 329.165 169.297C329.165 161.371 323.737 154.886 309.987 152.004L286.467 146.599C252.092 139.034 236.533 118.498 236.533 93.6381C236.533 61.9334 264.757 35.6328 303.112 35.6328C350.749 35.6328 368.629 63.987 372.398 83.2473C372.79 85.2524 371.437 87.1317 369.444 87.5787L337.025 94.8487C334.741 95.3607 332.53 93.8009 331.876 91.5544C329.113 82.0685 321.066 72.0212 303.474 72.0212C290.809 72.0212 280.678 79.5871 280.678 89.675C280.678 98.3218 287.191 103.726 296.961 105.527L322.29 110.932C357.389 118.137 375.12 139.394 375.12 165.334C375.12 194.157 352.685 223.7 306.007 223.7C255.476 223.7 236.194 192.906 232.355 172.481Z" fill="#0B56A7"/>
<path d="M397.565 170.018C397.565 138.313 421.085 120.659 450.757 116.336L494.54 109.851C504.672 108.41 507.928 103.366 507.928 97.2409C507.928 84.6311 498.159 74.1829 477.895 74.1829C458.94 74.1829 447.66 85.0569 444.586 98.5763C444.057 100.907 441.83 102.573 439.491 102.079L404.711 94.7424C402.706 94.3196 401.329 92.4505 401.679 90.4321C406.312 63.6977 431.809 35.6328 477.533 35.6328C533.981 35.6328 554.968 67.3376 554.968 103.005V190.193C554.968 197.559 555.64 206.93 556.454 213.576C556.757 216.046 554.857 218.295 552.368 218.295H516.173C514.312 218.295 512.696 217.01 512.422 215.169C512.218 213.794 512.034 212.25 511.874 210.619C511.486 206.647 505.405 204.727 502.488 207.451C492.658 216.632 478.264 223.339 458.717 223.339C420.724 223.339 397.565 197.759 397.565 170.018ZM468.849 187.672C489.112 187.672 507.928 177.944 507.928 146.599V143.329C507.928 140.88 505.747 139.006 503.325 139.375L467.764 144.798C455.461 146.599 445.691 153.445 445.691 167.135C445.691 177.584 453.29 187.672 468.849 187.672Z" fill="#0B56A7"/>
<path d="M596.965 188.032C596.965 170.018 611.801 155.246 629.893 155.246C648.347 155.246 663.183 170.018 663.183 188.032C663.183 206.046 648.347 220.817 629.893 220.817C611.801 220.817 596.965 206.046 596.965 188.032Z" fill="#F08201"/>
<path d="M509.984 314.345H501.752V273.801H510.096V289.145C511.272 287.409 514.352 285.841 518.16 285.841C526.224 285.841 531.096 292.001 531.096 300.345C531.096 308.857 525.608 314.961 517.824 314.961C514.128 314.961 511.272 313.337 509.984 311.209V314.345ZM522.584 300.401C522.584 295.697 519.616 293.513 516.312 293.513C513.008 293.513 509.984 295.697 509.984 300.401C509.984 304.993 513.008 307.345 516.312 307.345C519.616 307.345 522.584 305.049 522.584 300.401ZM544.406 325.041H535.446L541.774 310.593L530.07 286.513H539.59L546.366 301.409L552.526 286.513H561.542L544.406 325.041ZM596.554 314.345L588.882 298.833L583.73 303.537L581.434 314.345H572.642L581.042 274.641H589.89L586.586 290.097L603.498 274.641H615.706L595.77 292.673L607.082 314.345H596.554ZM633.911 314.345L632.847 306.281H618.119L613.695 314.345H603.783L626.855 274.641H637.103L643.095 314.345H633.911ZM630.047 284.553L622.599 298.217H631.783L630.047 284.553ZM654.093 314.345H645.189L653.589 274.641H662.549L654.093 314.345Z" fill="#0B56A7"/>
</svg>
