<svg width="121" height="67" viewBox="0 0 121 67" fill="none" xmlns="http://www.w3.org/2000/svg">
<path d="M35.7183 44.4183H45.9599L43.611 40.5678L35.7183 44.4183ZM41.696 37.4342L31.0515 19.9896L51.6866 4.9963e-07H35.3867C34.1085 -0.000575791 32.8807 0.497404 31.9656 1.38754L17.5096 15.4762L19.1334 4.9963e-07H4.41089L0.0136604 41.7699C-0.059162 42.4467 0.160855 43.1235 0.633425 43.6287C1.106 44.134 1.74126 44.4229 2.42455 44.4229H14.4542L15.4551 35.0439L19.8942 30.753L27.7032 43.0648C27.9661 43.4792 28.3298 43.8204 28.7606 44.0569C29.1913 44.2933 29.6751 44.4171 30.1668 44.4168H35.7168L38.5166 38.8496L41.696 37.4342Z" fill="white"/>
<path d="M50.571 44.4183L70.5119 32.3291L73.0499 42.595C73.3133 43.6689 74.2801 44.4229 75.3895 44.4229H88.2961L82.5323 25.0314L104.487 11.7122L104.58 10.816L35.7354 44.4106L50.571 44.4183ZM80.4685 18.0828L75.0858 0H62.4039C61.1056 0.000431667 59.833 0.360736 58.7282 1.04068C57.6234 1.72063 56.7298 2.69344 56.1473 3.8505L38.0208 39.8246L104.714 9.48256L104.817 8.46276L80.4685 18.0828ZM59.0308 26.5456L63.4776 17.1619L64.6505 14.5692C64.7899 14.2602 65.1122 14.0747 65.45 14.1056C65.7878 14.1365 66.0698 14.376 66.1534 14.7036L68.1863 22.9284L59.0308 26.5456Z" fill="white"/>
<path d="M96.6567 0C94.9268 0.00125505 93.2586 0.640956 91.9735 1.79583C90.6884 2.95071 89.8774 4.53904 89.6968 6.25475L88.7981 14.7932L104.822 8.46431L105.696 0H96.6567ZM85.6838 44.4183H101.1L104.478 11.7168L88.073 21.6722L85.6838 44.4183Z" fill="white"/>
<path d="M80.6905 62.8046H78.6317L78.4663 61.3157C77.8781 62.198 76.5913 63.0803 74.6245 63.0803C71.1135 63.0803 68.1173 60.5069 68.1173 56.2974C68.1173 52.0879 71.2606 49.4961 74.7899 49.4961C78.2089 49.4961 80.1023 51.4997 80.7456 53.5033L78.3192 54.3673C77.9884 53.2092 76.9038 51.8674 74.7899 51.8674C72.823 51.8674 70.6907 53.2092 70.6907 56.2974C70.6907 59.2385 72.6208 60.7642 74.8083 60.7642C77.2163 60.7642 78.1538 59.1466 78.3008 58.2275H74.1833V56.0217H80.6905V62.8046Z" fill="white"/>
<path d="M88.5809 53.7239V56.1871C88.3052 56.132 88.0662 56.1136 87.8457 56.1136C86.5957 56.1136 85.5112 56.7202 85.5112 58.6687V62.8046H83.0664V53.7607H85.4376V55.1026C85.9891 53.9078 87.2391 53.6872 88.0111 53.6872C88.2133 53.6872 88.3971 53.7056 88.5809 53.7239Z" fill="white"/>
<path d="M94.2733 60.8561C95.4681 60.8561 96.571 59.9922 96.571 58.2826C96.571 56.5731 95.4681 55.7092 94.2733 55.7092C93.0785 55.7092 91.9756 56.5731 91.9756 58.2826C91.9756 59.9738 93.0785 60.8561 94.2733 60.8561ZM94.2733 53.485C96.9754 53.485 99.0158 55.4886 99.0158 58.2826C99.0158 61.0583 96.9754 63.0803 94.2733 63.0803C91.5712 63.0803 89.5308 61.0583 89.5308 58.2826C89.5308 55.4886 91.5712 53.485 94.2733 53.485Z" fill="white"/>
<path d="M106.829 62.8046C106.792 62.6208 106.755 62.198 106.755 61.8304C106.259 62.6759 105.211 63.0436 104.255 63.0436C102.068 63.0436 100.818 61.4443 100.818 59.4775V53.7607H103.263V58.9812C103.263 59.9922 103.777 60.801 104.917 60.801C106.002 60.801 106.627 60.0657 106.627 59.0179V53.7607H109.071V61.1686C109.071 61.8671 109.126 62.4921 109.163 62.8046H106.829Z" fill="white"/>
<path d="M114.125 66.2972H111.68V53.7607H114.052V54.8636C114.456 54.1651 115.467 53.5585 116.827 53.5585C119.474 53.5585 121 55.5805 121 58.2643C121 61.0032 119.29 63.0252 116.735 63.0252C115.485 63.0252 114.566 62.5289 114.125 61.9223V66.2972ZM118.592 58.2826C118.592 56.6834 117.599 55.7459 116.349 55.7459C115.099 55.7459 114.088 56.6834 114.088 58.2826C114.088 59.8819 115.099 60.8377 116.349 60.8377C117.599 60.8377 118.592 59.9003 118.592 58.2826Z" fill="white"/>
</svg>
