<svg width="132" height="55" viewBox="0 0 132 55" fill="none" xmlns="http://www.w3.org/2000/svg">
<path d="M44.6074 54.9943H57.3978L54.4643 50.227L44.6074 54.9943ZM52.0726 46.3473L38.7791 24.749L64.5495 6.18591e-07H44.1933C42.5969 -0.000712886 41.0635 0.615836 39.9208 1.71791L21.8672 19.161L23.895 6.18591e-07H5.50861L0.01706 51.7153C-0.0738853 52.5532 0.200886 53.3911 0.791063 54.0167C1.38124 54.6423 2.17459 55 3.02793 55H18.0513L19.3013 43.3878L24.8451 38.0753L34.5976 53.3184C34.9258 53.8315 35.3801 54.254 35.9181 54.5467C36.456 54.8394 37.0602 54.9927 37.6742 54.9923H44.6054L48.102 48.0997L52.0726 46.3473Z" fill="white"/>
<path d="M63.1563 54.9943L88.0599 40.0266L91.2294 52.7369C91.5584 54.0664 92.7658 55 94.1513 55H110.27L103.072 30.9913L130.491 14.5009L130.607 13.3913L44.6286 54.9847L63.1563 54.9943ZM100.494 22.3883L93.772 0H77.934C76.3126 0.000534446 74.7233 0.446627 73.3435 1.28847C71.9638 2.1303 70.8479 3.33475 70.1204 4.7673L47.4828 49.3068L130.773 11.7403L130.903 10.4777L100.494 22.3883ZM73.7215 32.8661L79.2749 21.2482L80.7397 18.0381C80.9139 17.6555 81.3164 17.4259 81.7382 17.4642C82.16 17.5024 82.5122 17.799 82.6167 18.2045L85.1554 28.3877L73.7215 32.8661Z" fill="white"/>
<path d="M120.711 0C118.551 0.00155388 116.467 0.793567 114.862 2.22342C113.258 3.65327 112.245 5.61978 112.019 7.744L110.897 18.3155L130.909 10.4797L132 0H120.711ZM107.007 54.9943H126.261L130.479 14.5066L109.991 26.8323L107.007 54.9943Z" fill="white"/>
</svg>
